<svg width="209" height="53" viewBox="0 0 209 53" fill="none" xmlns="http://www.w3.org/2000/svg">
<path d="M17.4623 44L10.1023 31.212H6.10025V44H0.85625V12.03H11.8963C14.3496 12.03 16.4196 12.4593 18.1063 13.318C19.8236 14.1767 21.0963 15.3267 21.9243 16.768C22.7829 18.2093 23.2123 19.8193 23.2123 21.598C23.2123 23.6833 22.5989 25.5847 21.3723 27.302C20.1763 28.9887 18.3209 30.1387 15.8063 30.752L23.7183 44H17.4623ZM6.10025 27.026H11.8963C13.8589 27.026 15.3309 26.5353 16.3123 25.554C17.3243 24.5727 17.8303 23.254 17.8303 21.598C17.8303 19.942 17.3396 18.654 16.3583 17.734C15.3769 16.7833 13.8896 16.308 11.8963 16.308H6.10025V27.026ZM35.1647 16.262V25.646H46.2047V29.924H35.1647V39.722H47.5847V44H29.9207V11.984H47.5847V16.262H35.1647ZM56.1598 44.322C55.2091 44.322 54.4118 44 53.7678 43.356C53.1238 42.712 52.8018 41.9147 52.8018 40.964C52.8018 40.0133 53.1238 39.216 53.7678 38.572C54.4118 37.928 55.2091 37.606 56.1598 37.606C57.0798 37.606 57.8618 37.928 58.5058 38.572C59.1498 39.216 59.4718 40.0133 59.4718 40.964C59.4718 41.9147 59.1498 42.712 58.5058 43.356C57.8618 44 57.0798 44.322 56.1598 44.322ZM56.1598 25.002C55.2091 25.002 54.4118 24.68 53.7678 24.036C53.1238 23.392 52.8018 22.5947 52.8018 21.644C52.8018 20.6933 53.1238 19.896 53.7678 19.252C54.4118 18.608 55.2091 18.286 56.1598 18.286C57.0798 18.286 57.8618 18.608 58.5058 19.252C59.1498 19.896 59.4718 20.6933 59.4718 21.644C59.4718 22.5947 59.1498 23.392 58.5058 24.036C57.8618 24.68 57.0798 25.002 56.1598 25.002ZM104.822 12.03L92.8164 44H86.7444L74.6924 12.03H80.3044L89.7804 38.618L99.3024 12.03H104.822ZM114.452 12.03V44H109.208V12.03H114.452ZM126.581 16.262V25.646H137.621V29.924H126.581V39.722H139.001V44H121.337V11.984H139.001V16.262H126.581ZM187.09 12.03L177.614 44H171.68L164.964 19.804L157.834 44L151.946 44.046L142.884 12.03H148.45L155.074 38.066L162.25 12.03H168.138L174.808 37.928L181.478 12.03H187.09Z" fill="black"/>
<path d="M208.435 0.575997L195.923 52.05H190.771L203.237 0.575997H208.435Z" fill="#E95F45"/>
</svg>
