<svg width="497" height="159" viewBox="0 0 497 159" fill="none" xmlns="http://www.w3.org/2000/svg">
<path d="M30.24 51L19.728 31.92H16.776V51H4.464V0.455998H25.128C29.112 0.455998 32.496 1.152 35.28 2.544C38.112 3.936 40.224 5.856 41.616 8.304C43.008 10.704 43.704 13.392 43.704 16.368C43.704 19.728 42.744 22.728 40.824 25.368C38.952 28.008 36.168 29.88 32.472 30.984L44.136 51H30.24ZM16.776 23.208H24.408C26.664 23.208 28.344 22.656 29.448 21.552C30.6 20.448 31.176 18.888 31.176 16.872C31.176 14.952 30.6 13.44 29.448 12.336C28.344 11.232 26.664 10.68 24.408 10.68H16.776V23.208ZM63.7448 10.32V20.544H80.2328V30.048H63.7448V41.136H82.3928V51H51.4328V0.455998H82.3928V10.32H63.7448ZM96.1459 51.576C93.9859 51.576 92.2099 50.952 90.8179 49.704C89.4739 48.408 88.8019 46.824 88.8019 44.952C88.8019 43.032 89.4739 41.424 90.8179 40.128C92.2099 38.832 93.9859 38.184 96.1459 38.184C98.2579 38.184 99.9859 38.832 101.33 40.128C102.722 41.424 103.418 43.032 103.418 44.952C103.418 46.824 102.722 48.408 101.33 49.704C99.9859 50.952 98.2579 51.576 96.1459 51.576ZM96.1459 22.272C93.9859 22.272 92.2099 21.648 90.8179 20.4C89.4739 19.104 88.8019 17.52 88.8019 15.648C88.8019 13.728 89.4739 12.12 90.8179 10.824C92.2099 9.528 93.9859 8.88 96.1459 8.88C98.2579 8.88 99.9859 9.528 101.33 10.824C102.722 12.12 103.418 13.728 103.418 15.648C103.418 17.52 102.722 19.104 101.33 20.4C99.9859 21.648 98.2579 22.272 96.1459 22.272ZM173.553 0.455998L155.625 51H140.217L122.289 0.455998H135.393L147.921 38.616L160.521 0.455998H173.553ZM191.01 0.455998V51H178.698V0.455998H191.01ZM212.245 10.32V20.544H228.733V30.048H212.245V41.136H230.893V51H199.933V0.455998H230.893V10.32H212.245ZM308.438 0.455998L295.262 51H280.358L272.294 17.736L263.942 51H249.038L236.222 0.455998H249.398L256.67 37.248L265.67 0.455998H279.206L287.846 37.248L295.19 0.455998H308.438Z" fill="#333333"/>
<path d="M38.9237 93.9026H58.9544V99.3872H38.9237V93.9026ZM38.9237 109.323H59.1134V114.728H38.9237V109.323ZM7.76469 87.5436H40.5134V121.167H7.76469V87.5436ZM34.0749 92.8692H14.2032V115.921H34.0749V92.8692ZM56.9673 81.3436H63.5647V133.805H56.9673V81.3436ZM17.3826 146.205H65.2339V151.61H17.3826V146.205ZM17.3826 129.115H23.9801V148.669H17.3826V129.115ZM115.861 98.6718H131.838V104.156H115.861V98.6718ZM130.089 81.2641H136.607V120.372H130.089V81.2641ZM90.6636 123.79H97.1816V132.613H130.089V123.79H136.607V152.246H90.6636V123.79ZM97.1816 137.859V146.841H130.089V137.859H97.1816ZM95.8303 86.9077H101.235V92.7897C101.235 97.135 100.388 101.215 98.6918 105.031C97.0491 108.846 94.7175 112.185 91.6969 115.046C88.6764 117.908 85.179 120.08 81.2046 121.564L77.7867 116.318C80.4363 115.364 82.8474 114.092 85.02 112.503C87.2457 110.913 89.1799 109.085 90.8226 107.018C92.4653 104.898 93.7106 102.646 94.5585 100.262C95.4063 97.8239 95.8303 95.3333 95.8303 92.7897V86.9077ZM97.1021 86.9077H102.507V92.7897C102.507 95.8632 103.223 98.8573 104.653 101.772C106.084 104.633 108.124 107.203 110.774 109.482C113.423 111.708 116.47 113.456 119.915 114.728L116.576 119.895C112.655 118.464 109.237 116.397 106.323 113.695C103.408 110.992 101.129 107.839 99.4867 104.236C97.8969 100.579 97.1021 96.7641 97.1021 92.7897V86.9077ZM79.8534 85.5564H118.246V90.9615H79.8534V85.5564ZM183.101 82.5359C191.05 82.5359 197.25 83.6222 201.701 85.7949C206.152 87.9145 208.378 90.9615 208.378 94.9359C208.378 98.9632 206.152 102.063 201.701 104.236C197.25 106.356 191.05 107.415 183.101 107.415C175.205 107.415 169.005 106.356 164.501 104.236C160.05 102.063 157.824 98.9632 157.824 94.9359C157.824 90.9615 160.05 87.9145 164.501 85.7949C169.005 83.6222 175.205 82.5359 183.101 82.5359ZM183.101 87.4641C179.233 87.4641 175.921 87.7556 173.165 88.3385C170.41 88.9214 168.29 89.7692 166.806 90.8821C165.375 91.9949 164.66 93.3462 164.66 94.9359C164.66 96.5256 165.375 97.9034 166.806 99.0692C168.29 100.182 170.41 101.03 173.165 101.613C175.921 102.143 179.233 102.408 183.101 102.408C187.022 102.408 190.361 102.143 193.116 101.613C195.872 101.03 197.965 100.182 199.396 99.0692C200.88 97.9034 201.622 96.5256 201.622 94.9359C201.622 93.3462 200.88 91.9949 199.396 90.8821C197.965 89.7692 195.872 88.9214 193.116 88.3385C190.361 87.7556 187.022 87.4641 183.101 87.4641ZM150.67 112.264H215.611V117.59H150.67V112.264ZM158.539 123.71H207.265V139.926H165.137V148.59H158.698V135.077H200.827V128.797H158.539V123.71ZM158.698 147.238H209.411V152.405H158.698V147.238ZM260.707 88.0205H265.874V101.772C265.874 105.534 265.476 109.217 264.682 112.821C263.887 116.371 262.774 119.736 261.343 122.915C259.912 126.095 258.137 128.956 256.017 131.5C253.951 133.991 251.619 136.031 249.023 137.621L244.81 132.772C247.3 131.288 249.499 129.433 251.407 127.208C253.368 124.982 255.037 122.491 256.415 119.736C257.846 116.927 258.905 114.013 259.594 110.992C260.336 107.919 260.707 104.845 260.707 101.772V88.0205ZM261.82 88.0205H267.066V101.374C267.066 104.342 267.384 107.283 268.02 110.197C268.709 113.112 269.689 115.868 270.961 118.464C272.286 121.061 273.876 123.419 275.73 125.538C277.585 127.658 279.705 129.354 282.089 130.626L278.115 135.792C275.518 134.309 273.187 132.374 271.12 129.99C269.106 127.552 267.411 124.797 266.033 121.723C264.655 118.65 263.595 115.391 262.853 111.946C262.164 108.502 261.82 104.978 261.82 101.374V88.0205ZM300.371 81.2641H306.73V153.2H300.371V81.2641ZM288.925 110.197H302.756V115.603H288.925V110.197ZM284.553 82.7744H290.833V149.544H284.553V82.7744ZM318.647 118.067H383.827V123.392H318.647V118.067ZM347.978 109.323H354.496V120.69H347.978V109.323ZM327.391 127.049H333.909V133.964H369.042V127.049H375.56V152.246H327.391V127.049ZM333.909 139.051V147H369.042V139.051H333.909ZM326.914 82.7744H375.48V99.3077H333.591V108.767H327.073V94.3795H368.963V87.941H326.914V82.7744ZM327.073 106.064H376.991V111.231H327.073V106.064ZM446.615 81.2641H452.974V153.2H446.615V81.2641ZM415.377 110.674H433.5V116H415.377V110.674ZM431.672 83.1718H437.872V149.544H431.672V83.1718ZM416.251 90.4051H422.61C422.61 96.6581 421.709 102.673 419.908 108.449C418.159 114.172 415.297 119.524 411.323 124.505C407.349 129.433 402.129 133.832 395.664 137.7L391.849 132.931C397.466 129.539 402.076 125.724 405.679 121.485C409.283 117.192 411.932 112.556 413.628 107.574C415.377 102.54 416.251 97.2145 416.251 91.5974V90.4051ZM394.949 90.4051H418.715V95.8103H394.949V90.4051ZM494.255 137.779L485.988 158.605H482.173L488.055 137.779H494.255Z" fill="#333333"/>
</svg>
