<svg width="29" height="29" viewBox="0 0 29 29" fill="none" xmlns="http://www.w3.org/2000/svg">
<path d="M10.4012 21.1504C7.55311 21.1504 5.13254 20.1539 3.13949 18.1608C1.14643 16.1678 0.149902 13.7476 0.149902 10.9004C0.149902 8.05317 1.14643 5.63303 3.13949 3.63997C5.13254 1.64692 7.55268 0.650391 10.3999 0.650391C13.2471 0.650391 15.6673 1.64692 17.6603 3.63997C19.6534 5.63303 20.6499 8.0536 20.6499 10.9017C20.6499 12.0517 20.472 13.1362 20.116 14.1552C19.7601 15.1742 19.269 16.1108 18.6426 16.965L27.7822 26.1046C28.0954 26.4178 28.252 26.7737 28.252 27.1723C28.252 27.5709 28.0954 27.9268 27.7822 28.24C27.469 28.5532 27.106 28.7098 26.6931 28.7098C26.2803 28.7098 25.9173 28.5532 25.6041 28.24L16.4645 19.1431C15.6103 19.7695 14.6737 20.2606 13.6547 20.6165C12.6357 20.9724 11.5512 21.1504 10.4012 21.1504ZM10.3999 18.0754C12.393 18.0754 14.0871 17.3778 15.4822 15.9827C16.8773 14.5875 17.5749 12.8934 17.5749 10.9004C17.5749 8.90733 16.8773 7.21324 15.4822 5.8181C14.0871 4.42296 12.393 3.72539 10.3999 3.72539C8.40685 3.72539 6.71275 4.42296 5.31761 5.8181C3.92247 7.21324 3.2249 8.90733 3.2249 10.9004C3.2249 12.8934 3.92247 14.5875 5.31761 15.9827C6.71275 17.3778 8.40685 18.0754 10.3999 18.0754Z" fill="#E95F45"/>
</svg>
